<svg data-v-fde0c5aa="" xmlns="http://www.w3.org/2000/svg" viewBox="0 0 300 300" class="iconLeft"><!----><defs data-v-fde0c5aa=""><linearGradient data-v-fde0c5aa="" gradientTransform="rotate(25)" id="44f90216-efee-431c-8d86-f416a3de12e1" x1="0%" y1="0%" x2="100%" y2="0%"><stop data-v-fde0c5aa="" offset="0%" stop-color="#462AB9" stop-opacity="1"></stop><stop data-v-fde0c5aa="" offset="100%" stop-color="#737048" stop-opacity="1"></stop></linearGradient></defs><rect data-v-fde0c5aa="" fill="url(#44f90216-efee-431c-8d86-f416a3de12e1)" x="0" y="0" width="300px" height="300px" class="logo-background-square"></rect><defs data-v-fde0c5aa=""><!----></defs><g data-v-fde0c5aa="" id="535643e5-8607-42c6-b925-2077a186e8a5" fill="#ffffff" transform="matrix(2.7544798851013184,0,0,2.7544798851013184,95.3371916598262,126.86236924599072)"><path d="M9.32 3.78L9.32 6.17L6.44 6.17L6.44 13.02L3.18 13.02L3.18 6.17L0.28 6.17L0.28 3.78L9.32 3.78ZM19.04 3.78L15.81 9.81L15.81 13.02L12.54 13.02L12.54 9.81L9.31 3.78L12.56 3.78L13.54 5.89L14.20 7.57L14.85 5.89L15.83 3.78L19.04 3.78ZM28.91 3.78L28.91 13.02L25.38 13.02L23.17 8.82L22.67 7.69L22.64 7.69L22.69 9.59L22.69 13.02L19.87 13.02L19.87 3.78L23.39 3.78L25.61 7.99L26.11 9.11L26.14 9.11L26.08 7.21L26.08 3.78L28.91 3.78ZM33.80 5.88L33.80 5.88Q35.66 5.88 36.68 6.83L36.68 6.83L36.68 6.83Q37.70 7.78 37.70 9.52L37.70 9.52L37.70 9.52Q37.70 11.26 36.68 12.21L36.68 12.21L36.68 12.21Q35.66 13.16 33.80 13.16L33.80 13.16L33.80 13.16Q31.93 13.16 30.91 12.21L30.91 12.21L30.91 12.21Q29.89 11.26 29.89 9.52L29.89 9.52L29.89 9.52Q29.89 7.78 30.91 6.83L30.91 6.83L30.91 6.83Q31.93 5.88 33.80 5.88L33.80 5.88ZM33.80 8.05L33.80 8.05Q33.52 8.05 33.38 8.18L33.38 8.18L33.38 8.18Q33.24 8.30 33.18 8.61L33.18 8.61L33.18 8.61Q33.12 8.92 33.12 9.52L33.12 9.52L33.12 9.52Q33.12 10.12 33.18 10.43L33.18 10.43L33.18 10.43Q33.24 10.74 33.38 10.86L33.38 10.86L33.38 10.86Q33.52 10.99 33.80 10.99L33.80 10.99L33.80 10.99Q34.08 10.99 34.22 10.86L34.22 10.86L34.22 10.86Q34.36 10.74 34.41 10.43L34.41 10.43L34.41 10.43Q34.47 10.12 34.47 9.52L34.47 9.52L34.47 9.52Q34.47 8.92 34.41 8.61L34.41 8.61L34.41 8.61Q34.36 8.30 34.22 8.18L34.22 8.18L34.22 8.18Q34.08 8.05 33.80 8.05L33.80 8.05ZM44.02 10.86L44.16 12.68L44.16 12.68Q43.81 12.89 43.21 13.03L43.21 13.03L43.21 13.03Q42.62 13.16 42.07 13.16L42.07 13.16L42.07 13.16Q40.56 13.16 39.82 12.58L39.82 12.58L39.82 12.58Q39.07 12.00 39.07 10.67L39.07 10.67L39.07 8.19L38.00 8.19L38.00 6.02L39.07 6.02L39.07 4.54L42.29 3.64L42.29 6.02L44.06 6.02L44.06 8.19L42.29 8.19L42.29 10.16L42.29 10.16Q42.29 10.64 42.50 10.84L42.50 10.84L42.50 10.84Q42.70 11.05 43.13 11.05L43.13 11.05L43.13 11.05Q43.65 11.05 44.02 10.86L44.02 10.86ZM52.09 9.30L52.09 9.30Q52.09 9.83 52.02 10.14L52.02 10.14L47.57 10.14L47.57 10.14Q47.64 10.65 47.87 10.84L47.87 10.84L47.87 10.84Q48.09 11.02 48.54 11.02L48.54 11.02L48.54 11.02Q49.22 11.02 49.38 10.42L49.38 10.42L51.97 11.12L51.97 11.12Q51.73 12.12 50.80 12.64L50.80 12.64L50.80 12.64Q49.87 13.16 48.54 13.16L48.54 13.16L48.54 13.16Q46.55 13.16 45.52 12.22L45.52 12.22L45.52 12.22Q44.49 11.28 44.49 9.52L44.49 9.52L44.49 9.52Q44.49 7.78 45.51 6.83L45.51 6.83L45.51 6.83Q46.52 5.88 48.37 5.88L48.37 5.88L48.37 5.88Q50.18 5.88 51.14 6.80L51.14 6.80L51.14 6.80Q52.09 7.73 52.09 9.30L52.09 9.30ZM48.38 8.01L48.38 8.01Q48.02 8.01 47.82 8.22L47.82 8.22L47.82 8.22Q47.63 8.43 47.57 8.95L47.57 8.95L49.08 8.95L49.08 8.95Q49.04 8.47 48.88 8.24L48.88 8.24L48.88 8.24Q48.72 8.01 48.38 8.01L48.38 8.01ZM56.17 13.16L56.17 13.16Q54.87 13.16 53.97 12.91L53.97 12.91L53.97 12.91Q53.07 12.67 52.46 12.12L52.46 12.12L53.87 10.42L53.87 10.42Q54.28 10.78 54.81 11.00L54.81 11.00L54.81 11.00Q55.34 11.23 55.93 11.23L55.93 11.23L55.93 11.23Q56.20 11.23 56.37 11.18L56.37 11.18L56.37 11.18Q56.55 11.13 56.55 11.02L56.55 11.02L56.55 11.02Q56.55 10.89 56.31 10.79L56.31 10.79L56.31 10.79Q56.07 10.68 55.50 10.57L55.50 10.57L55.50 10.57Q53.98 10.28 53.29 9.72L53.29 9.72L53.29 9.72Q52.60 9.17 52.60 8.32L52.60 8.32L52.60 8.32Q52.60 7.70 53.01 7.15L53.01 7.15L53.01 7.15Q53.42 6.59 54.28 6.24L54.28 6.24L54.28 6.24Q55.13 5.88 56.39 5.88L56.39 5.88L56.39 5.88Q57.62 5.88 58.46 6.17L58.46 6.17L58.46 6.17Q59.29 6.47 59.77 6.90L59.77 6.90L58.45 8.46L58.45 8.46Q57.81 7.81 56.55 7.81L56.55 7.81L56.55 7.81Q56.17 7.81 56 7.88L56 7.88L56 7.88Q55.83 7.95 55.83 8.06L55.83 8.06L55.83 8.06Q55.83 8.23 56.69 8.34L56.69 8.34L56.69 8.34Q58.30 8.57 59.04 9.12L59.04 9.12L59.04 9.12Q59.78 9.67 59.78 10.64L59.78 10.64L59.78 10.64Q59.78 11.73 58.88 12.45L58.88 12.45L58.88 12.45Q57.99 13.16 56.17 13.16L56.17 13.16Z"></path></g><defs data-v-fde0c5aa=""><!----></defs><g data-v-fde0c5aa="" id="f0f2463b-97a9-474c-871b-7ded0aeb280f" stroke="none" fill="#ffffff" transform="matrix(0.49664106965065,0,0,0.49664106965065,36.42418442033279,122.83373473791798)"><style>.st2{fill:none}</style><path class="st2" d="M13.8 17.5v49h28.1l3.9 3.5V21.9l-4.5-4.4H13.8zM41 60h-.2c-1.2 0-1.8-.6-2.3-1.1-.5-.5-.8-.7-1.4-.7-.7 0-1 .3-1.4.7-.5.5-1.2 1.1-2.4 1.1s-1.8-.6-2.4-1.1c-.4-.4-.8-.7-1.4-.7-.7 0-1 .3-1.4.7-.5.5-1.2 1.1-2.4 1.1s-1.8-.6-2.3-1.1c-.5-.5-.8-.7-1.5-.7s-1 .3-1.4.7c-.5.5-1.1 1.1-2.4 1.1h-.2v-1.4h.2c.7 0 1-.3 1.4-.7.5-.5 1.1-1.1 2.4-1.1 1.2 0 1.9.6 2.4 1.1.4.4.7.7 1.4.7s1-.3 1.4-.7c.5-.5 1.1-1.1 2.4-1.1 1.2 0 1.9.6 2.4 1.1.5.4.8.7 1.4.7.7 0 1-.3 1.4-.7.5-.5 1.1-1.1 2.4-1.1 1.2 0 1.9.6 2.4 1.1.5.4.8.7 1.4.7h.1V60zm0-6.3h-.2c-1.2 0-1.8-.6-2.3-1.1-.5-.5-.8-.7-1.4-.7-.7 0-1 .3-1.4.7-.5.5-1.2 1.1-2.4 1.1s-1.8-.6-2.4-1.1c-.4-.4-.8-.7-1.4-.7-.7 0-1 .3-1.4.7-.5.5-1.2 1.1-2.4 1.1s-1.8-.6-2.3-1.1c-.5-.5-.8-.7-1.5-.7s-1 .3-1.4.7c-.5.5-1.1 1.1-2.4 1.1h-.2v-1.4h.2c.7 0 1-.3 1.4-.7.5-.5 1.1-1.1 2.4-1.1 1.2 0 1.9.6 2.4 1.1.4.4.7.7 1.4.7s1-.3 1.4-.7c.5-.5 1.1-1.1 2.4-1.1 1.2 0 1.9.6 2.4 1.1.5.4.8.7 1.4.7.7 0 1-.3 1.4-.7.5-.5 1.1-1.1 2.4-1.1 1.2 0 1.9.6 2.4 1.1.5.4.8.7 1.4.7h.1v1.4zm0-6.3h-.2c-1.2 0-1.8-.6-2.3-1.1-.5-.4-.8-.7-1.4-.7-.7 0-1 .3-1.4.7-.5.5-1.2 1.1-2.4 1.1s-1.8-.6-2.4-1.1c-.4-.4-.8-.7-1.4-.7-.7 0-1 .3-1.4.7-.5.5-1.2 1.1-2.4 1.1s-1.8-.6-2.3-1.1c-.5-.4-.8-.7-1.5-.7s-1 .3-1.4.7c-.5.5-1.1 1.1-2.4 1.1h-.2V46h.2c.7 0 1-.3 1.4-.7.5-.5 1.1-1.1 2.4-1.1 1.2 0 1.9.6 2.4 1.1.4.4.7.7 1.4.7s1-.3 1.4-.7c.5-.5 1.1-1.1 2.4-1.1 1.2 0 1.9.6 2.4 1.1.5.4.8.7 1.4.7.7 0 1-.3 1.4-.7.5-.5 1.1-1.1 2.4-1.1 1.2 0 1.9.6 2.4 1.1.5.4.8.7 1.4.7h.1v1.4zm0-6.3h-.2c-1.2 0-1.8-.6-2.3-1.1-.5-.5-.8-.7-1.4-.7-.7 0-1 .3-1.4.7-.5.5-1.2 1.1-2.4 1.1s-1.8-.6-2.4-1.1c-.4-.4-.8-.7-1.4-.7-.7 0-1 .3-1.4.7-.5.5-1.2 1.1-2.4 1.1s-1.8-.6-2.3-1.1c-.5-.5-.8-.7-1.5-.7s-1 .3-1.4.7c-.5.5-1.1 1.1-2.4 1.1h-.2v-1.3h.2c.7 0 1-.3 1.4-.7.5-.5 1.1-1.1 2.4-1.1 1.2 0 1.9.6 2.4 1.1.4.4.7.7 1.4.7s1-.3 1.4-.7c.5-.5 1.1-1.1 2.4-1.1 1.2 0 1.9.6 2.4 1.1.5.4.8.7 1.4.7.7 0 1-.3 1.4-.7.5-.5 1.1-1.1 2.4-1.1 1.2 0 1.9.6 2.4 1.1.5.4.8.7 1.4.7h.1v1.3zm0-6.3h-.2c-1.2 0-1.8-.6-2.3-1.1-.5-.4-.8-.7-1.5-.7s-1 .3-1.4.7c-.5.5-1.2 1.1-2.4 1.1s-1.8-.6-2.4-1.1c-.4-.4-.8-.7-1.4-.7-.7 0-1 .3-1.4.7-.5.5-1.2 1.1-2.4 1.1s-1.8-.6-2.3-1.1c-.5-.5-.8-.7-1.5-.7s-1 .3-1.4.7c-.5.5-1.1 1.1-2.4 1.1h-.2v-1.4h.2c.7 0 1-.3 1.4-.7.5-.5 1.1-1.1 2.4-1.1 1.2 0 1.9.6 2.4 1.1.4.4.7.7 1.4.7s1-.3 1.4-.7c.5-.5 1.1-1.1 2.4-1.1 1.2 0 1.9.6 2.4 1.1.5.4.8.7 1.4.7.7 0 1-.3 1.4-.7.5-.5 1.1-1.1 2.4-1.1 1.2 0 1.9.6 2.4 1.1.5.4.8.7 1.4.7h.2v1.4zm0-6.3h-.2c-1.2 0-1.8-.6-2.3-1.1-.5-.4-.8-.7-1.5-.7s-1 .3-1.4.7c-.5.5-1.2 1.1-2.4 1.1s-1.8-.6-2.4-1.1c-.4-.4-.8-.7-1.4-.7-.7 0-1 .3-1.4.7-.5.5-1.2 1.1-2.4 1.1s-1.8-.6-2.3-1.1c-.5-.5-.8-.7-1.5-.7s-1 .3-1.4.7c-.5.5-1.1 1.1-2.4 1.1h-.2v-1.4h.2c.7 0 1-.3 1.4-.7.5-.5 1.1-1.1 2.4-1.1 1.2 0 1.9.6 2.4 1.1.4.4.7.7 1.4.7s1-.3 1.4-.7c.5-.5 1.1-1.1 2.4-1.1 1.2 0 1.9.6 2.4 1.1.5.4.8.7 1.4.7.7 0 1-.3 1.4-.7.5-.5 1.1-1.1 2.4-1.1 1.2 0 1.9.6 2.4 1.1.5.4.8.7 1.4.7h.2v1.4zM62.4 91.7h21.5l.7-7.6H61.7zM56.3 61.4h-3.9l3.3-8.8h1.6l1-2.2h22.2V17.5H53l-4.5 4.4V70l3.9-3.5H57l-.4-2.7-.3-2.4zm-3.9-34.2h.2c.7 0 1-.3 1.4-.7.5-.5 1.1-1.1 2.4-1.1 1.2 0 1.9.6 2.4 1.1.4.4.7.7 1.4.7s1-.3 1.4-.7c.5-.5 1.1-1.1 2.4-1.1 1.2 0 1.9.6 2.4 1.1.5.4.8.7 1.4.7.7 0 1-.3 1.4-.7.5-.5 1.1-1.1 2.4-1.1 1.2 0 1.9.6 2.4 1.1.5.4.8.7 1.4.7h.2v1.4h-.2c-1.2 0-1.8-.6-2.3-1.1-.5-.5-.8-.7-1.5-.7s-1 .3-1.4.7c-.5.5-1.2 1.1-2.4 1.1s-1.8-.6-2.4-1.1c-.4-.5-.7-.8-1.4-.8s-1 .3-1.4.7c-.5.5-1.2 1.1-2.4 1.1s-1.8-.6-2.3-1.1c-.5-.5-.8-.7-1.5-.7s-1 .3-1.4.7c-.5.5-1.2 1.1-2.4 1.1h-.2v-1.3zm0 6.3h.2c.7 0 1-.3 1.4-.7.5-.5 1.1-1.1 2.4-1.1 1.2 0 1.9.6 2.4 1.1.4.4.7.7 1.4.7s1-.3 1.4-.7c.5-.5 1.1-1.1 2.4-1.1 1.2 0 1.9.6 2.4 1.1.5.4.8.7 1.4.7.7 0 1-.3 1.4-.7.5-.5 1.1-1.1 2.4-1.1 1.2 0 1.9.6 2.4 1.1.5.4.8.7 1.4.7h.2v1.4h-.2c-1.2 0-1.8-.6-2.3-1.1-.5-.5-.8-.7-1.5-.7s-1 .3-1.4.7c-.5.5-1.2 1.1-2.4 1.1s-1.8-.6-2.4-1.1c-.4-.5-.7-.8-1.4-.8s-1 .3-1.4.7c-.5.5-1.2 1.1-2.4 1.1s-1.8-.6-2.3-1.1c-.5-.5-.8-.7-1.5-.7s-1 .3-1.4.7c-.5.5-1.2 1.1-2.4 1.1h-.2v-1.3zm0 6.3h.2c.7 0 1-.3 1.4-.7.5-.5 1.1-1.1 2.4-1.1 1.2 0 1.9.6 2.4 1.1.4.4.7.7 1.4.7s1-.3 1.4-.7c.5-.5 1.1-1.1 2.4-1.1 1.2 0 1.9.6 2.4 1.1.5.4.8.7 1.4.7.7 0 1-.3 1.4-.7.5-.5 1.1-1.1 2.4-1.1 1.2 0 1.9.6 2.4 1.1.5.4.8.7 1.4.7h.2v1.3h-.2c-1.2 0-1.8-.6-2.3-1.1-.5-.5-.8-.7-1.5-.7s-1 .3-1.4.7c-.5.5-1.2 1.1-2.4 1.1s-1.8-.6-2.4-1.1c-.4-.4-.7-.7-1.4-.7s-1 .3-1.4.7c-.5.5-1.2 1.1-2.4 1.1s-1.8-.6-2.3-1.1c-.5-.5-.8-.7-1.5-.7s-1 .3-1.4.7c-.5.5-1.2 1.1-2.4 1.1h-.2v-1.3zm0 6.2h.2c.7 0 1-.3 1.4-.7.5-.5 1.1-1.1 2.4-1.1 1.2 0 1.9.6 2.4 1.1.4.4.7.7 1.4.7s1-.3 1.4-.7c.5-.5 1.1-1.1 2.4-1.1 1.2 0 1.9.6 2.4 1.1.5.4.8.7 1.4.7.7 0 1-.3 1.4-.7.5-.5 1.1-1.1 2.4-1.1 1.2 0 1.9.6 2.4 1.1.5.4.8.7 1.4.7h.2v1.4h-.2c-1.2 0-1.8-.6-2.3-1.1-.5-.4-.8-.7-1.5-.7s-1 .3-1.4.7c-.5.5-1.2 1.1-2.4 1.1s-1.8-.6-2.4-1.1c-.4-.4-.7-.7-1.4-.7s-1 .3-1.4.7c-.5.5-1.2 1.1-2.4 1.1s-1.8-.6-2.3-1.1c-.5-.4-.8-.7-1.5-.7s-1 .3-1.4.7c-.5.5-1.2 1.1-2.4 1.1h-.2V46zM73.2 80.9c3.6 0 6.6-2.8 6.8-6.3v-.5c0-3.8-3-6.8-6.8-6.8s-6.8 3-6.8 6.8v.5c.2 3.5 3.1 6.3 6.8 6.3z"></path><path class="st2" d="M87.3 55.2l-.2-.5-.8-1.7H60l-1 2.2h-1.5l-1.3 3.6h2.4l.5 4.6h28.1l.5-4.6h2.5l-1.4-3.6z"></path><path d="M90.6 52.6H89l-1-2.2h-1V20.6h-4v-5.5H52l-4.8 4.7-4.8-4.7h-31v5.5H7.2l.2 54H58v.1l2.1 19.6h26.1l1.6-15.1.6-4.5 1.4-11.2.3-2.2H94l-3.4-8.7zM45.8 70l-3.9-3.5H13.8v-49h27.6l4.5 4.4V70zm6.6-3.5L48.5 70V21.9l4.5-4.4h27.6v32.9H58.4l-1 2.2h-1.6l-3.3 8.8h3.9l.3 2.3.4 2.7h-4.7zm31.5 25.2H62.4l-.8-7.6h22.9l-.6 7.6zM66.3 74.1c0-3.8 3-6.8 6.8-6.8s6.8 3 6.8 6.8v.5c-.2 3.5-3.2 6.3-6.8 6.3-3.6 0-6.6-2.8-6.8-6.3v-.5zm21.4-15.3l-.5 4.6H59.1l-.5-4.6h-2.5l1.4-3.6H59l1-2.2h26.2l.8 1.7.2.5h1.5l1.4 3.6h-2.4z"></path><path d="M55 46.3c.5-.4.8-.7 1.4-.7.7 0 1 .3 1.5.7.5.5 1.1 1.1 2.3 1.1 1.2 0 1.8-.6 2.4-1.1.5-.4.8-.7 1.4-.7.7 0 1 .3 1.4.7.5.5 1.2 1.1 2.4 1.1s1.8-.6 2.4-1.1c.4-.4.7-.7 1.4-.7s1 .3 1.5.7c.5.5 1.1 1.1 2.3 1.1h.2V46h-.2c-.7 0-1-.3-1.4-.7-.5-.5-1.1-1.1-2.4-1.1-1.2 0-1.9.6-2.4 1.1-.5.4-.7.7-1.4.7s-1-.3-1.4-.7c-.5-.5-1.1-1.1-2.4-1.1-1.2 0-1.9.6-2.4 1.1-.5.4-.8.7-1.4.7s-1-.3-1.4-.7c-.5-.5-1.1-1.1-2.4-1.1-1.2 0-1.9.6-2.4 1.1-.5.4-.8.7-1.4.7h-.2v1.4h.2c1.2 0 1.9-.6 2.4-1.1zM55 40c.5-.4.8-.7 1.4-.7.7 0 1 .3 1.5.7.5.5 1.1 1.1 2.3 1.1 1.2 0 1.8-.6 2.4-1.1.5-.4.8-.7 1.4-.7.7 0 1 .3 1.4.7.5.5 1.2 1.1 2.4 1.1s1.8-.6 2.4-1.1c.4-.4.7-.7 1.4-.7s1 .3 1.5.7c.5.5 1.1 1.1 2.3 1.1h.2v-1.3h-.2c-.7 0-1-.3-1.4-.7-.5-.5-1.1-1.1-2.4-1.1-1.2 0-1.9.6-2.4 1.1-.5.4-.7.7-1.4.7s-1-.3-1.4-.7c-.5-.5-1.2-1.1-2.4-1.1s-1.9.6-2.4 1.1c-.5.4-.8.7-1.4.7s-1-.3-1.4-.7c-.5-.5-1.1-1.1-2.4-1.1-1.2 0-1.9.6-2.4 1.1-.5.4-.8.7-1.4.7h-.2v1.3h.2c1.2 0 1.9-.6 2.4-1.1zM55 33.7c.5-.4.8-.7 1.4-.7.7 0 1 .3 1.5.7.5.5 1.1 1.1 2.3 1.1 1.2 0 1.8-.6 2.4-1.1.4-.4.7-.7 1.4-.7s1 .3 1.4.7c.5.5 1.2 1.1 2.4 1.1s1.8-.6 2.4-1.1c.4-.4.7-.7 1.4-.7s1 .3 1.5.7c.5.5 1.1 1.1 2.3 1.1h.2v-1.4h-.2c-.7 0-1-.3-1.4-.7-.5-.5-1.1-1.1-2.4-1.1-1.2 0-1.9.6-2.4 1.1-.5.4-.7.7-1.4.7s-1-.3-1.4-.7c-.5-.5-1.1-1.1-2.4-1.1-1.2 0-1.9.6-2.4 1.1-.5.4-.8.7-1.4.7s-1-.3-1.4-.7c-.5-.5-1.1-1.1-2.4-1.1-1.2 0-1.9.6-2.4 1.1-.5.4-.8.7-1.4.7h-.2v1.4h.2c1.2 0 1.9-.6 2.4-1.1zM55 27.4c.5-.4.8-.7 1.4-.7.7 0 1 .3 1.5.7.5.5 1.1 1.1 2.3 1.1 1.2 0 1.8-.6 2.4-1.1.5-.4.8-.7 1.4-.7.7 0 1 .3 1.4.7.5.5 1.2 1.1 2.4 1.1s1.8-.6 2.4-1.1c.4-.4.7-.7 1.4-.7s1 .3 1.5.7c.5.5 1.1 1.1 2.3 1.1h.2v-1.4h-.2c-.7 0-1-.3-1.4-.7-.5-.5-1.1-1.1-2.4-1.1-1.2 0-1.9.6-2.4 1.1-.5.4-.7.7-1.4.7s-1-.3-1.4-.7c-.5-.5-1.1-1.1-2.4-1.1-1.2 0-1.9.6-2.4 1.1-.5.4-.8.7-1.4.7s-1-.3-1.4-.7c-.5-.5-1.1-1.1-2.4-1.1-1.2 0-1.9.6-2.4 1.1-.5.4-.8.7-1.4.7h-.2v1.4h.2c1.2 0 1.9-.6 2.4-1.1zM39.4 57.9c-.5-.5-1.1-1.1-2.4-1.1-1.2 0-1.9.6-2.4 1.1-.4.4-.7.7-1.4.7s-1-.3-1.4-.7c-.5-.5-1.1-1.1-2.4-1.1-1.2 0-1.9.6-2.4 1.1-.5.4-.8.7-1.4.7-.7 0-1-.3-1.4-.7-.5-.5-1.1-1.1-2.4-1.1-1.2 0-1.9.6-2.4 1.1-.5.4-.8.7-1.4.7h-.2V60h.2c1.2 0 1.8-.6 2.4-1.1.5-.4.8-.7 1.4-.7.7 0 1 .3 1.5.7.5.5 1.1 1.1 2.3 1.1 1.2 0 1.8-.6 2.4-1.1.4-.4.8-.7 1.4-.7.7 0 1 .3 1.4.7.5.5 1.2 1.1 2.4 1.1s1.8-.6 2.4-1.1c.4-.4.7-.7 1.4-.7s1 .3 1.4.7c.5.5 1.1 1.1 2.3 1.1h.3v-1.4h-.2c-.6 0-1-.2-1.4-.7zM39.4 51.6c-.5-.5-1.1-1.1-2.4-1.1-1.2 0-1.9.6-2.4 1.1-.4.4-.7.7-1.4.7s-1-.3-1.4-.7c-.5-.5-1.1-1.1-2.4-1.1-1.2 0-1.9.6-2.4 1.1-.5.4-.8.7-1.4.7-.7 0-1-.3-1.4-.7-.5-.5-1.1-1.1-2.4-1.1-1.2 0-1.9.6-2.4 1.1-.5.4-.8.7-1.4.7h-.2v1.4h.2c1.2 0 1.8-.6 2.4-1.1.5-.4.8-.7 1.4-.7.7 0 1 .3 1.5.7.5.5 1.1 1.1 2.3 1.1 1.2 0 1.8-.6 2.4-1.1.4-.4.8-.7 1.4-.7.7 0 1 .3 1.4.7.5.5 1.2 1.1 2.4 1.1s1.8-.6 2.4-1.1c.4-.4.7-.7 1.4-.7s1 .3 1.4.7c.5.5 1.1 1.1 2.3 1.1h.3v-1.4h-.2c-.6 0-1-.2-1.4-.7zM39.4 45.3c-.5-.5-1.1-1.1-2.4-1.1-1.2 0-1.9.6-2.4 1.1-.4.4-.7.7-1.4.7s-1-.3-1.4-.7c-.5-.5-1.1-1.1-2.4-1.1-1.2 0-1.9.6-2.4 1.1-.5.4-.8.7-1.4.7-.7 0-1-.3-1.4-.7-.5-.5-1.1-1.1-2.4-1.1-1.2 0-1.9.6-2.4 1.1-.4.5-.7.7-1.3.7h-.2v1.4h.2c1.2 0 1.8-.6 2.4-1.1.5-.4.8-.7 1.4-.7.7 0 1 .3 1.5.7.5.5 1.1 1.1 2.3 1.1 1.2 0 1.8-.6 2.4-1.1.4-.4.8-.7 1.4-.7.7 0 1 .3 1.4.7.5.5 1.2 1.1 2.4 1.1s1.8-.6 2.4-1.1c.4-.4.7-.7 1.4-.7s1 .3 1.4.7c.5.5 1.1 1.1 2.3 1.1h.2V46h-.2c-.6 0-1-.2-1.4-.7zM39.4 39c-.5-.4-1.2-1-2.4-1s-1.9.6-2.4 1.1c-.4.4-.7.7-1.4.7s-1-.3-1.4-.7c-.5-.5-1.1-1.1-2.4-1.1-1.2 0-1.9.6-2.4 1.1-.5.4-.8.7-1.4.7-.7 0-1-.3-1.4-.7-.5-.5-1.1-1.1-2.4-1.1-1.2 0-1.9.6-2.4 1.1-.5.4-.8.7-1.4.7h-.2v1.3h.2c1.2 0 1.8-.6 2.4-1.1.5-.4.8-.7 1.4-.7.7 0 1 .3 1.5.7.5.5 1.1 1.1 2.3 1.1 1.2 0 1.8-.6 2.4-1.1.4-.4.8-.7 1.4-.7.7 0 1 .3 1.4.7.5.5 1.2 1.1 2.4 1.1s1.8-.6 2.4-1.1c.4-.4.7-.7 1.4-.7s1 .3 1.4.7c.5.5 1.1 1.1 2.3 1.1h.3v-1.3h-.2c-.6 0-1-.3-1.4-.8zM39.4 32.8c-.5-.5-1.1-1.1-2.4-1.1-1.2 0-1.9.6-2.4 1.1-.4.4-.7.7-1.4.7s-1-.3-1.4-.7c-.5-.5-1.1-1.1-2.4-1.1-1.2 0-1.9.6-2.4 1.1-.5.4-.8.7-1.4.7-.7 0-1-.3-1.4-.7-.5-.5-1.1-1.1-2.4-1.1-1.2 0-1.9.6-2.4 1.1-.5.4-.8.7-1.4.7h-.2v1.4h.2c1.2 0 1.8-.6 2.4-1.1.5-.4.8-.7 1.4-.7.7 0 1 .3 1.5.7.5.5 1.1 1.1 2.3 1.1 1.2 0 1.8-.6 2.4-1.1.4-.4.8-.7 1.4-.7.7 0 1 .3 1.4.7.5.5 1.2 1.1 2.4 1.1s1.8-.6 2.4-1.1c.4-.4.7-.7 1.4-.7s1 .3 1.4.7c.5.5 1.1 1.1 2.3 1.1h.3v-1.4h-.2c-.6 0-1-.3-1.4-.7zM39.4 26.5c-.5-.5-1.1-1.1-2.4-1.1-1.2 0-1.9.6-2.4 1.1-.4.4-.7.7-1.4.7s-1-.3-1.4-.7c-.5-.5-1.1-1.1-2.4-1.1-1.2 0-1.9.6-2.4 1.1-.5.4-.8.7-1.4.7-.7 0-1-.3-1.4-.7-.5-.5-1.1-1.1-2.4-1.1-1.2 0-1.9.6-2.4 1.1-.5.4-.8.7-1.4.7h-.2v1.4h.2c1.2 0 1.8-.6 2.4-1.1.5-.4.8-.7 1.4-.7.7 0 1 .3 1.5.7.5.5 1.1 1.1 2.3 1.1 1.2 0 1.8-.6 2.4-1.1.4-.4.8-.7 1.4-.7.7 0 1 .3 1.4.7.5.5 1.2 1.1 2.4 1.1s1.8-.6 2.4-1.1c.4-.4.7-.7 1.4-.7s1 .3 1.4.7c.5.5 1.1 1.1 2.3 1.1h.3v-1.4h-.2c-.6 0-1-.3-1.4-.7z"></path></g><!----></svg>